HIERARCHY
ROOT Hips
{
	OFFSET 0.000000 0.000000 0.000000 
	CHANNELS 6 Xposition Yposition Zposition Zrotation Yrotation Xrotation
	JOINT LeftUpLeg
	{
		OFFSET 1.363060 -1.794630 0.839290 
		CHANNELS 3 Zrotation Yrotation Xrotation
		JOINT LeftLeg
		{
			OFFSET 2.448110 -6.726130 0.000000 
			CHANNELS 3 Zrotation Yrotation Xrotation
			JOINT LeftFoot
			{
				OFFSET 2.562200 -7.039590 0.000000 
				CHANNELS 3 Zrotation Yrotation Xrotation
				JOINT LeftToeBase
				{
					OFFSET 0.157640 -0.433110 2.322550 
					CHANNELS 3 Zrotation Yrotation Xrotation
					End Site
					{
						OFFSET 0.000000 0.000000 0.000000 
					}
				}
			}
		}
	}
	JOINT RightUpLeg
	{
		OFFSET -1.305520 -1.794630 0.839290 
		CHANNELS 3 Zrotation Yrotation Xrotation
		JOINT RightLeg
		{
			OFFSET -2.542530 -6.985550 0.000000 
			CHANNELS 3 Zrotation Yrotation Xrotation
			JOINT RightFoot
			{
				OFFSET -2.568260 -7.056230 0.000000 
				CHANNELS 3 Zrotation Yrotation Xrotation
				JOINT RightToeBase
				{
					OFFSET -0.164730 -0.452590 2.363150 
					CHANNELS 3 Zrotation Yrotation Xrotation
					End Site
					{
						OFFSET 0.000000 0.000000 0.000000 
					}
				}
			}
		}
	}
	JOINT Spine
	{
		OFFSET 0.028270 2.035590 -0.193380 
		CHANNELS 3 Zrotation Yrotation Xrotation
		JOINT Spine1
		{
			OFFSET 0.056720 2.048850 -0.042750 
			CHANNELS 3 Zrotation Yrotation Xrotation
			JOINT Neck1
			{
				OFFSET -0.054170 1.746240 0.172020 
				CHANNELS 3 Zrotation Yrotation Xrotation
				JOINT Head
				{
					OFFSET 0.104070 1.761360 -0.123970 
					CHANNELS 3 Zrotation Yrotation Xrotation
					End Site
					{
						OFFSET 0.000000 0.000000 0.000000 
					}
				}
			}
			JOINT LeftArm
			{
				OFFSET 3.362410 1.200890 -0.311210 
				CHANNELS 3 Zrotation Yrotation Xrotation
				JOINT LeftForeArm
				{
					OFFSET 4.983000 -0.000000 -0.000000 
					CHANNELS 3 Zrotation Yrotation Xrotation
					JOINT LeftHand
					{
						OFFSET 3.483560 -0.000000 -0.000000 
						CHANNELS 3 Zrotation Yrotation Xrotation
						JOINT LeftHandIndex1
						{
							OFFSET 0.715260 -0.000000 -0.000000 
							CHANNELS 3 Zrotation Yrotation Xrotation
							End Site
							{
								OFFSET 0.000000 0.000000 0.000000 
							}
						}
					}
				}
			}
			JOINT RightArm
			{
				OFFSET -3.136600 1.374050 -0.404650 
				CHANNELS 3 Zrotation Yrotation Xrotation
				JOINT RightForeArm
				{
					OFFSET -5.241900 -0.000000 -0.000000 
					CHANNELS 3 Zrotation Yrotation Xrotation
					JOINT RightHand
					{
						OFFSET -3.444170 -0.000000 -0.000000 
						CHANNELS 3 Zrotation Yrotation Xrotation
						JOINT RightHandIndex1
						{
							OFFSET -0.622530 -0.000000 -0.000000 
							CHANNELS 3 Zrotation Yrotation Xrotation
							End Site
							{
								OFFSET 0.000000 0.000000 0.000000 
							}
						}
					}
				}
			}
		}
	}
}
MOTION
Frames: 16
Frame Time: 0.041667
11.811711 13.544560 18.622189 166.545219 -13.354674 71.054701 -31.359099 -33.537560 -12.857401 18.547335 -6.119605 42.020543 26.092076 8.784246 63.175122 1.955600 8.772900 25.087600 -49.178161 2.715986 -22.447814 23.656237 -15.438828 30.333977 -1.012487 -10.074230 62.357025 -1.277000 -7.161700 20.195400 -63.237307 50.185110 47.270433 -7.251489 47.869177 -48.716824 0.905479 -1.977213 24.809151 -8.594700 -2.317400 20.232300 19.534397 42.571279 32.481738 -14.385732 12.066776 -4.757232 17.966895 -14.841898 -101.660815 -7.125000 0.000000 0.000000 77.116101 -45.118838 12.594405 -8.256521 7.787666 -0.896099 -0.484087 6.414479 -1.920477 7.125000 0.000000 0.000000 
11.800732 13.550965 18.639877 163.209628 -14.929314 69.795834 -32.067632 -32.438528 -12.612797 20.632548 0.194639 39.314921 24.301122 8.156043 62.299582 2.087700 9.046300 25.940400 -50.487425 4.086634 -19.353879 22.988225 -19.165200 27.546783 0.596911 -10.224355 63.150495 -1.281700 -7.174300 20.232700 -65.852821 51.288842 49.938763 -10.482747 44.437119 -42.457276 -0.581055 -1.847749 22.350354 -8.786800 -2.357200 20.201500 19.820793 38.932297 32.180543 -11.360710 12.527945 -4.850339 18.037017 -16.759509 -99.539358 -7.125000 0.000000 0.000000 83.863110 -44.445452 11.001898 -2.037742 14.983848 -0.885151 0.475275 6.429080 -2.330124 7.125000 0.000000 0.000000 
11.788380 13.555082 18.654516 157.940768 -16.610374 70.131467 -32.506137 -31.290781 -12.149630 22.399492 5.336133 36.390918 22.611055 7.722205 61.887084 2.222600 9.315100 26.785900 -50.986291 4.584058 -15.796906 21.705335 -23.375781 24.469711 2.825394 -10.625123 64.479200 -1.300500 -7.224600 20.382600 -66.430075 52.620039 50.571015 -10.085230 36.768612 -34.170724 -1.479414 -1.895243 19.237410 -8.982500 -2.402500 20.176200 11.106704 26.461013 33.378484 -6.560430 -0.664878 -4.924075 17.568971 -19.006755 -97.662920 -7.125000 0.000000 0.000000 97.758169 -41.635425 8.892499 12.010568 28.614673 -0.899672 1.501357 6.317034 -2.845577 7.125000 0.000000 0.000000 
11.775114 13.557369 18.666409 154.817315 -16.184808 74.092102 -31.650187 -30.806492 -11.817612 23.570671 8.837357 34.238146 21.136382 7.479808 61.856751 2.359600 9.578000 27.620700 -49.373675 3.544747 -13.143853 19.697382 -28.101294 21.986619 5.313004 -11.214823 65.978121 -1.311000 -7.252700 20.466300 -59.605077 55.607967 40.096244 -13.632800 32.086554 -20.893539 0.129991 -2.552815 16.617323 -9.171700 -2.450600 20.158800 2.631628 15.542896 34.454599 2.986141 -2.515166 -4.986817 15.957732 -22.070066 -96.819000 -7.125000 0.000000 0.000000 117.151142 -35.462430 7.553379 23.894303 41.157215 -0.870949 1.957683 6.040244 -3.311752 7.125000 0.000000 0.000000 
11.761238 13.557522 18.675559 154.819866 -14.454006 77.931029 -29.846218 -30.815425 -11.157390 24.188483 10.866511 33.527521 19.876020 7.405003 62.051538 2.493300 9.825700 28.414100 -47.376661 1.314286 -10.962053 17.119334 -32.707931 20.292600 7.778172 -11.928366 67.517077 -1.310000 -7.250200 20.458700 -53.683397 56.034702 26.613169 -19.192457 32.607615 -6.576727 2.072378 -3.152890 13.659688 -9.349500 -2.498100 20.147700 3.278947 13.840501 37.020569 -0.927578 14.693280 -5.103857 14.377080 -24.910211 -96.895613 -7.125000 0.000000 0.000000 134.626787 -31.102551 7.815293 26.202186 45.522775 -0.809752 1.969215 5.789905 -3.758751 7.125000 0.000000 0.000000 
11.747362 13.555844 18.682268 154.276342 -12.975591 80.145159 -28.619654 -30.252662 -10.778451 24.685492 11.941981 33.326583 18.881773 7.451870 62.342195 2.619100 10.051200 29.142800 -45.837590 -0.799565 -8.914679 14.317480 -36.341419 18.738626 10.130653 -12.764875 69.266081 -1.317900 -7.271100 20.521000 -52.790424 50.921193 17.731478 -21.471283 30.957959 3.087046 3.012521 -3.474924 10.696225 -9.683900 -2.475700 20.505800 6.856228 13.816420 38.434696 -5.588892 24.937184 -5.131996 13.534428 -26.362021 -95.175518 -7.125000 0.000000 0.000000 146.901075 -23.697345 9.084450 28.668026 47.324004 -0.809446 2.319249 5.499849 -4.318760 7.125000 0.000000 0.000000 
11.733943 13.552795 18.686995 152.568099 -11.245727 79.711710 -27.870345 -29.044797 -10.587288 25.017071 12.460989 33.297757 18.177553 7.605718 62.601686 2.727100 10.239600 29.756100 -45.086028 -2.086077 -6.553958 11.509163 -38.713763 17.300689 12.147028 -13.605953 71.046809 -1.336700 -7.320600 20.668900 -49.235557 46.896685 15.380987 -20.225511 26.217738 7.377492 3.707992 -3.873623 8.569443 -9.834000 -2.517800 20.509600 8.404775 14.222387 37.268306 -0.262860 22.063752 -5.187659 13.868598 -26.679074 -92.717461 -7.125000 0.000000 0.000000 158.470626 -16.395044 10.721546 30.855393 43.130957 -0.870020 3.042175 5.232852 -4.943400 7.125000 0.000000 0.000000 
11.721591 13.548068 18.689740 152.596871 -9.641748 75.364619 -26.836920 -27.829313 -9.726000 25.065072 12.810592 34.008100 17.585506 7.770572 62.726392 2.810500 10.381800 30.222100 -46.061120 -2.678675 -3.653357 9.122479 -39.677819 16.419185 13.604442 -14.354068 72.404916 -1.379500 -7.432300 21.002500 -37.229578 50.447637 18.314056 -14.829543 25.737112 9.250616 4.561815 -4.503993 8.395776 -9.973300 -2.563100 20.534800 7.880744 15.356503 32.958507 0.769404 12.095268 -5.418757 14.541760 -27.230799 -90.260796 -7.125000 0.000000 0.000000 163.330520 -15.992773 11.203063 25.657796 27.878702 -0.898470 3.474433 5.249948 -5.419588 7.125000 0.000000 0.000000 
11.710155 13.541968 18.692027 155.074092 -9.322906 69.813281 -25.608504 -27.048048 -8.665822 24.809579 13.182759 35.371348 17.119436 7.904993 62.675212 2.863500 10.470800 30.515100 -48.395583 -2.506274 -1.113855 7.324247 -39.416977 16.489797 14.432798 -14.868400 73.069628 -1.473000 -7.669300 21.714100 -20.509957 58.206434 23.801656 -12.018271 31.783900 13.102977 5.228843 -5.255160 9.786736 -10.101500 -2.610200 20.586800 7.994363 15.956861 28.916790 -4.135551 8.466411 -5.693602 14.622787 -28.053114 -88.010428 -7.125000 0.000000 0.000000 155.375633 -17.867915 10.119245 15.791286 14.064576 -0.872216 3.355571 5.527587 -5.669003 7.125000 0.000000 0.000000 
11.699786 13.533886 18.693857 157.109044 -9.365122 66.058210 -24.559510 -26.441228 -8.131218 24.423147 13.406365 36.428617 16.941343 8.036797 62.461872 2.887200 10.510100 30.644900 -50.485236 -1.646621 0.183491 6.246199 -38.070491 17.633030 14.609110 -15.093673 72.962501 -1.593800 -7.963200 22.602300 -6.016764 60.988839 26.781738 -13.443147 39.107745 16.859601 5.528263 -5.922240 11.144207 -10.215900 -2.660200 20.675600 8.890481 14.610922 26.656375 -5.469752 11.430867 -5.825865 14.056166 -28.608150 -85.646744 -7.125000 0.000000 0.000000 144.921801 -17.529609 8.854549 8.830587 6.985538 -0.848109 3.137681 5.765737 -5.803847 7.125000 0.000000 0.000000 
11.690179 13.523822 18.695839 157.204201 -9.416339 64.051190 -23.936358 -25.814453 -8.038431 24.060629 13.384300 36.832920 17.065385 8.161933 62.127834 2.876400 10.492200 30.585700 -51.803571 -0.352350 0.638002 5.815384 -35.786419 19.600253 14.287471 -14.986065 72.214863 -1.711100 -8.236500 23.434800 2.919718 59.375695 27.169837 -15.670283 44.680972 18.796059 5.466198 -6.387166 11.819596 -10.312500 -2.713900 20.806900 8.771811 12.284889 25.290729 -3.588134 14.185697 -5.841700 13.229596 -28.898184 -83.069666 -7.125000 0.000000 0.000000 138.886114 -16.111308 7.825563 5.863161 4.094790 -0.841284 3.024257 5.866021 -5.895679 7.125000 0.000000 0.000000 
11.680878 13.511776 18.697364 155.734618 -9.444590 62.925870 -23.656089 -25.210409 -8.068133 23.797361 13.146152 36.720130 17.399664 8.304065 61.716471 2.838800 10.429400 30.378700 -52.425997 1.113535 0.871230 5.778548 -32.869453 22.070399 13.635213 -14.582224 71.051216 -1.808700 -8.455600 24.106700 7.301114 57.795185 26.727878 -17.646890 47.462163 19.637957 5.240362 -6.667072 11.774821 -10.387800 -2.770600 20.982300 7.903967 10.248750 24.350461 -1.563181 15.253729 -5.809451 12.418141 -29.108361 -80.317813 -7.125000 0.000000 0.000000 138.486278 -14.490207 6.977341 5.766154 3.386542 -0.847877 3.036889 5.866707 -5.973802 7.125000 0.000000 0.000000 
11.672034 13.497595 18.697212 153.223393 -9.338953 62.329415 -23.567572 -24.735523 -8.028925 23.640623 12.718255 36.217131 17.890742 8.457644 61.274933 2.765100 10.304700 29.969000 -52.398987 2.547056 1.238302 5.830530 -29.772890 24.706922 12.787607 -13.964001 69.756420 -1.857300 -8.562300 24.435400 8.443304 58.253011 26.284854 -19.727930 47.010425 19.810485 5.056871 -6.825899 10.999938 -10.443500 -2.829800 21.207100 6.902260 8.721506 23.904758 -0.162777 15.375290 -5.744857 11.723120 -29.309747 -77.531810 -7.125000 0.000000 0.000000 143.918518 -12.919468 6.299377 8.087733 4.283133 -0.869844 3.198084 5.803777 -6.061385 7.125000 0.000000 0.000000 
11.663037 13.481736 18.695229 149.817615 -8.906219 62.555133 -23.512577 -24.476050 -7.856291 23.561164 12.022985 35.336887 18.556401 8.675294 60.837868 2.659800 10.122800 29.375500 -51.577069 3.701183 1.824721 5.757973 -26.807230 27.314404 11.822033 -13.139666 68.537923 -1.836200 -8.516200 24.293300 6.600015 59.931733 25.494832 -22.694445 42.885649 18.553318 5.032372 -6.913643 9.370147 -10.470500 -2.894500 21.455700 6.096029 7.203179 24.415523 1.851836 16.258641 -5.604917 11.069332 -29.422923 -74.724809 -7.125000 0.000000 0.000000 156.288209 -11.985670 5.907407 13.313426 7.022435 -0.907841 3.560808 5.597755 -6.165484 7.125000 0.000000 0.000000 
11.654345 13.464810 18.688825 146.109316 -8.417414 64.342618 -23.427056 -24.685697 -7.713769 23.401856 11.125496 34.186070 19.394435 9.024931 60.479126 2.529900 9.892000 28.627800 -50.004750 4.184939 2.438230 5.221257 -25.027612 29.088666 11.072734 -12.543051 67.812862 -1.822900 -8.486900 24.203100 0.220590 59.024108 23.592732 -27.497839 35.256459 14.014975 4.986704 -6.951845 6.921083 -10.473400 -2.961700 21.729500 6.211987 5.405373 26.636598 4.764557 22.520606 -5.294022 10.177508 -29.270440 -71.933005 -7.125000 0.000000 0.000000 173.778419 -12.706621 5.923348 20.595522 11.564991 -0.963843 4.159025 5.103212 -6.285677 7.125000 0.000000 0.000000 
11.644891 13.447732 18.681353 143.260969 -9.194108 67.643996 -23.337312 -25.604969 -7.510400 22.934342 10.043755 33.130352 20.482305 9.499011 60.167454 2.371800 9.600900 27.693900 -48.173227 4.117828 2.863751 4.452897 -23.551672 30.804606 10.213214 -11.796096 67.220276 -1.749000 -8.322300 23.697500 -12.905622 51.859484 22.569828 -33.319659 25.750084 3.378970 4.305821 -6.907157 4.311165 -10.454000 -3.029700 22.024500 7.353477 2.562298 30.914978 0.388403 36.152451 -4.854950 8.730981 -29.106417 -69.313274 -7.125000 0.000000 0.000000 -171.631638 -18.493798 6.079863 25.103207 15.684281 -1.030230 4.848842 4.194173 -6.388171 7.125000 0.000000 0.000000 
